# Blender 5.1.2
# www.blender.org
mtllib altar.mtl
o Cube
v 1.000000 -1.000000 -1.000000
v 1.000000 -1.000000 1.000000
v -1.000000 -1.000000 -1.000000
v -1.000000 -1.000000 1.000000
v 1.000000 -1.000000 0.214744
v 1.000000 -0.750000 -1.000000
v 1.000000 -0.750000 1.000000
v -1.000000 -0.750000 -1.000000
v -1.000000 -0.750000 1.000000
v -1.000000 -0.625000 1.000000
v 1.000000 -0.625000 -1.000000
v 1.000000 -0.625000 1.000000
v -1.000000 -0.625000 -1.000000
v 0.000000 -1.000000 -1.000000
v 0.000000 -1.000000 1.000000
v 0.000000 -0.750000 -1.000000
v 0.000000 -0.750000 1.000000
v 0.000000 -0.625000 -1.000000
v 0.000000 -0.625000 1.000000
v -1.000000 -1.000000 0.000000
v 1.000000 -1.000000 0.000000
v 1.000000 -0.750000 0.000000
v -1.000000 -0.750000 0.000000
v 1.000000 -0.625000 0.000000
v -1.000000 -0.625000 0.000000
v 0.000000 -1.000000 0.000000
v 0.000000 1.052102 0.000000
v -0.500000 -1.000000 -1.000000
v -0.500000 -0.750000 1.000000
v -0.500000 -0.625000 1.000000
v -0.500000 -1.000000 1.000000
v -0.500000 -0.750000 -1.000000
v -0.500000 -0.625000 -1.000000
v -0.500000 -1.000000 0.000000
v 1.000000 -1.000000 -0.500000
v -1.000000 -0.750000 -0.500000
v -1.000000 -0.625000 -0.500000
v -1.000000 -1.000000 -0.500000
v 1.000000 -0.750000 -0.500000
v 1.000000 -0.625000 -0.500000
v 0.000000 -1.000000 -0.500000
v -0.500000 -1.000000 -0.500000
v 0.500000 -1.000000 1.000000
v 0.500000 -0.750000 -1.000000
v 0.500000 -0.625000 -1.000000
v 0.500000 -1.000000 -1.000000
v 0.500000 -0.750000 1.000000
v 0.500000 -0.625000 1.000000
v 0.500000 -1.000000 0.000000
v 0.500000 -1.000000 -0.500000
v -1.000000 -1.000000 0.500000
v 1.000000 -0.750000 0.500000
v 1.000000 -0.625000 0.500000
v 0.000000 -1.000000 0.500000
v 1.000000 -1.000000 0.500000
v -1.000000 -0.750000 0.500000
v -1.000000 -0.625000 0.500000
v -0.500000 -1.000000 0.500000
v 0.500000 -1.000000 0.500000
v -1.000000 -0.750000 0.214744
v -1.000000 -0.625000 0.214744
v -1.000000 -1.000000 0.214744
v 1.000000 -0.750000 0.214744
v 1.000000 -0.625000 0.214744
v 0.000000 -1.000000 0.214744
v 0.000000 1.000000 0.214744
v -0.500000 -1.000000 0.214744
v 0.500000 -1.000000 0.214744
v -1.000000 -1.000000 -0.250000
v 1.000000 -0.750000 -0.250000
v 1.000000 -0.625000 -0.250000
v 0.000000 -1.000000 -0.250000
v 0.000000 1.000000 -0.250000
v -0.500000 -1.000000 -0.250000
v 1.000000 -1.000000 -0.250000
v -1.000000 -0.750000 -0.250000
v -1.000000 -0.625000 -0.250000
v 0.500000 -1.000000 -0.250000
v -0.250000 -1.000000 1.000000
v -0.250000 -0.750000 -1.000000
v -0.250000 -0.625000 -1.000000
v -0.250000 1.000000 0.000000
v -0.250000 -1.000000 -1.000000
v -0.250000 -0.750000 1.000000
v -0.250000 -0.625000 1.000000
v -0.250000 -1.000000 0.000000
v -0.250000 -1.000000 -0.500000
v -0.250000 -1.000000 0.500000
v -0.250000 -1.000000 0.214744
v -0.250000 1.000000 0.214744
v -0.250000 1.000000 -0.250000
v -0.250000 -1.000000 -0.250000
v 0.250000 -1.000000 -1.000000
v 0.250000 -0.750000 1.000000
v 0.250000 -0.625000 1.000000
v 0.250000 -1.000000 0.000000
v 0.250000 -1.000000 -0.500000
v 0.250000 -1.000000 1.000000
v 0.250000 -0.750000 -1.000000
v 0.250000 -0.625000 -1.000000
v 0.250000 1.000000 0.000000
v 0.250000 -1.000000 0.500000
v 0.250000 1.000000 0.214744
v 0.250000 -1.000000 0.214744
v 0.250000 -1.000000 -0.250000
v 0.250000 1.000000 -0.250000
v -1.000000 -0.625000 -1.000000
v 0.000000 -0.625000 -1.000000
v -0.500000 -0.625000 -1.000000
v 0.000000 1.000000 -0.250000
v -0.250000 -0.625000 -1.000000
v -0.250000 1.000000 -0.250000
v -0.125000 1.000000 0.000000
v -0.125000 1.000000 0.214744
v -0.125000 1.000000 -0.250000
v -0.125000 1.000000 -0.250000
v 0.125000 1.000000 0.000000
v 0.125000 1.000000 0.214744
v 0.125000 1.000000 -0.250000
v 0.000000 1.000000 -0.125000
v -0.250000 1.000000 -0.125000
v 0.250000 1.000000 -0.125000
v -0.125000 1.000000 -0.125000
v 0.125000 1.000000 -0.125000
v 0.000000 1.000000 0.107372
v -0.250000 1.000000 0.107372
v 0.250000 1.000000 0.107372
v -0.125000 1.000000 0.107372
v 0.125000 1.000000 0.107372
v -0.062500 1.052102 0.000000
v -0.062500 1.000000 0.214744
v -0.062500 1.000000 -0.250000
v -0.062500 1.000000 -0.250000
v -0.062500 1.000000 -0.125000
v -0.062500 1.000000 0.107372
v 0.000000 1.052102 -0.062500
v -0.250000 1.000000 -0.062500
v 0.250000 1.000000 -0.062500
v -0.125000 1.000000 -0.062500
v 0.125000 1.000000 -0.062500
v -0.062500 1.052102 -0.062500
v 0.062500 1.052102 0.000000
v 0.062500 1.000000 0.214744
v 0.062500 1.000000 -0.250000
v 0.062500 1.000000 -0.125000
v 0.062500 1.000000 0.107372
v 0.062500 1.052102 -0.062500
v 0.000000 1.052102 0.053686
v -0.250000 1.000000 0.053686
v 0.250000 1.000000 0.053686
v -0.125000 1.000000 0.053686
v 0.125000 1.000000 0.053686
v -0.062500 1.052102 0.053686
v 0.062500 1.052102 0.053686
vn -0.0000 -1.0000 -0.0000
vn 1.0000 -0.0000 -0.0000
vn -0.0000 -0.0000 -1.0000
vn -1.0000 -0.0000 -0.0000
vn -0.0000 -0.0000 1.0000
vn -0.0000 1.0000 -0.0000
vn -0.0000 0.4191 -0.9080
vn 0.9080 0.4191 -0.0000
vn -0.0000 0.4351 0.9004
vn -0.9080 0.4191 -0.0000
vn -0.6403 0.7681 -0.0000
vn -0.3511 0.8424 0.4088
vn -0.0000 0.7176 0.6964
vn -0.0000 0.7681 -0.6403
vn -0.3591 0.8615 -0.3591
vn 0.3591 0.8615 -0.3591
vn 0.3511 0.8424 0.4088
vn 0.6403 0.7681 -0.0000
vt 0.750000 0.362589
vt 0.750000 0.483452
vt 0.666667 0.483452
vt 0.666667 0.362589
vt 0.500000 0.433222
vt 0.500000 0.403062
vt 0.535791 0.403062
vt 0.535791 0.433222
vt 0.833333 0.362589
vt 0.833333 0.483452
vt 0.797543 0.483452
vt 0.797543 0.362589
vt 0.250000 1.000000
vt 0.250000 0.939679
vt 0.333333 0.939679
vt 0.333333 1.000000
vt 0.583333 0.493543
vt 0.583333 0.433222
vt 0.666667 0.433222
vt 0.666667 0.493543
vt 0.583333 1.000000
vt 0.583333 0.939679
vt 0.666667 0.939679
vt 0.666667 1.000000
vt 0.250000 0.506457
vt 0.250000 0.446710
vt 0.333333 0.446710
vt 0.333333 0.506457
vt 0.250000 0.909519
vt 0.333333 0.909519
vt 0.583333 0.403062
vt 0.666667 0.403062
vt 0.583333 0.909519
vt 0.666667 0.909519
vt 0.250000 0.416836
vt 0.333333 0.416836
vt 0.125000 0.446710
vt 0.125000 0.416836
vt 0.166667 0.416836
vt 0.166667 0.446710
vt 0.125000 0.939679
vt 0.125000 0.909519
vt 0.166667 0.909519
vt 0.166667 0.939679
vt 0.125000 0.506457
vt 0.166667 0.506457
vt 0.125000 1.000000
vt 0.166667 1.000000
vt 0.750000 0.181295
vt 0.750000 0.241726
vt 0.666667 0.241726
vt 0.666667 0.181295
vt 0.697885 0.558992
vt 0.697885 0.543884
vt 0.708302 0.543884
vt 0.708302 0.558992
vt 0.875000 0.181295
vt 0.875000 0.241726
vt 0.833333 0.241726
vt 0.833333 0.181295
vt 0.464209 0.939679
vt 0.464209 0.909519
vt 0.500000 0.909519
vt 0.500000 0.939679
vt 0.458333 0.433222
vt 0.458333 0.403062
vt 0.464209 1.000000
vt 0.500000 1.000000
vt 0.458333 0.493543
vt 0.500000 0.493543
vt 0.875000 0.362589
vt 0.875000 0.483452
vt 0.875000 0.000000
vt 0.875000 0.120863
vt 0.833333 0.120863
vt 0.833333 0.000000
vt 0.750000 0.000000
vt 0.750000 0.120863
vt 0.666667 0.120863
vt 0.666667 0.000000
vt 0.000000 1.000000
vt 0.000000 0.939679
vt 0.083333 0.939679
vt 0.083333 1.000000
vt 0.000000 0.909519
vt 0.083333 0.909519
vt 0.208333 0.446710
vt 0.208333 0.416836
vt 0.208333 0.506457
vt 1.000000 0.000000
vt 1.000000 0.120863
vt 0.916667 0.120863
vt 0.916667 0.000000
vt 1.000000 0.362589
vt 1.000000 0.483452
vt 0.916667 0.483452
vt 0.916667 0.362589
vt 0.333333 0.493543
vt 0.333333 0.433222
vt 0.416667 0.433222
vt 0.416667 0.493543
vt 0.333333 0.403062
vt 0.416667 0.403062
vt 1.000000 0.181295
vt 1.000000 0.241726
vt 0.916667 0.241726
vt 0.916667 0.181295
vt 0.541667 0.939679
vt 0.541667 0.909519
vt 0.541667 1.000000
vt 1.000000 0.302158
vt 0.916667 0.302158
vt 0.875000 0.302158
vt 0.833333 0.302158
vt 0.535791 0.493543
vt 0.000000 0.506457
vt 0.000000 0.446710
vt 0.083333 0.446710
vt 0.083333 0.506457
vt 0.000000 0.416836
vt 0.083333 0.416836
vt 0.208333 0.939679
vt 0.208333 0.909519
vt 0.208333 1.000000
vt 0.750000 0.302158
vt 0.666667 0.302158
vt 0.797543 0.302158
vt 0.797543 0.000000
vt 0.797543 0.120863
vt 0.416667 0.939679
vt 0.416667 1.000000
vt 0.416667 0.909519
vt 0.797543 0.181295
vt 0.797543 0.241726
vt 0.726228 0.558992
vt 0.726228 0.543884
vt 0.744123 0.543884
vt 0.744123 0.558992
vt 0.726228 0.513668
vt 0.726228 0.483452
vt 0.744123 0.483452
vt 0.744123 0.513668
vt 0.697917 0.513668
vt 0.697917 0.483452
vt 0.708333 0.483452
vt 0.708333 0.513668
vt 0.666667 0.634531
vt 0.145833 0.506457
vt 0.156250 0.506457
vt 0.500000 0.000000
vt 0.508948 0.000000
vt 0.517895 0.000000
vt 0.535791 0.000000
vt 0.458333 0.000000
vt 0.479167 0.000000
vt 0.489583 0.000000
vt 0.125000 0.000000
vt 0.145833 0.000000
vt 0.156250 0.000000
vt 0.166667 0.000000
vt 0.177083 0.000000
vt 0.187500 0.000000
vt 0.208333 0.000000
vt 0.464209 0.506457
vt 0.482105 0.506457
vt 0.491052 0.506457
vt 0.500000 0.506457
vt 0.541667 0.506457
vt 0.697885 0.528776
vt 0.708302 0.528776
vt 0.726228 0.528776
vt 0.744123 0.528776
vt 0.726228 0.604315
vt 0.726228 0.574100
vt 0.744123 0.574100
vt 0.744123 0.604315
vt 0.697917 0.604315
vt 0.697917 0.574100
vt 0.708333 0.574100
vt 0.708333 0.604315
vt 0.666667 0.604315
vt 0.666667 0.574100
vt 0.687500 0.574100
vt 0.687500 0.604315
vt 0.666667 0.528776
vt 0.666667 0.513668
vt 0.687500 0.513668
vt 0.687500 0.528776
vt 0.666667 0.483452
vt 0.687500 0.483452
vt 0.666667 0.558992
vt 0.666667 0.543884
vt 0.687500 0.543884
vt 0.687500 0.558992
vt 0.717281 0.604315
vt 0.717281 0.574100
vt 0.717249 0.528776
vt 0.717281 0.513668
vt 0.717281 0.483452
vt 0.666667 0.634531
vt 0.666667 0.619423
vt 0.676594 0.619423
vt 0.676594 0.634531
vt 0.666667 0.604315
vt 0.676594 0.604315
vt 0.717249 0.558992
vt 0.717249 0.543884
s 0
usemtl Material
f 59/1/1 55/2/1 2/3/1 43/4/1
f 22/5/2 24/6/2 64/7/2 63/8/2
f 49/9/1 21/10/1 5/11/1 68/12/1
f 46/13/3 44/14/3 6/15/3 1/16/3
f 55/17/2 52/18/2 7/19/2 2/20/2
f 38/21/4 36/22/4 8/23/4 3/24/4
f 31/25/5 29/26/5 9/27/5 4/28/5
f 44/14/3 45/29/3 11/30/3 6/15/3
f 52/18/2 53/31/2 12/32/2 7/19/2
f 36/22/4 37/33/4 13/34/4 8/23/4
f 29/26/5 30/35/5 10/36/5 9/27/5
f 94/37/5 95/38/5 19/39/5 17/40/5
f 80/41/3 81/42/3 18/43/3 16/44/3
f 98/45/5 94/37/5 17/40/5 15/46/5
f 83/47/3 80/41/3 16/44/3 14/48/3
f 88/49/1 54/50/1 15/51/1 79/52/1
f 147/53/6 136/54/6 27/55/6 142/56/6
f 92/57/1 72/58/1 26/59/1 86/60/1
f 60/61/4 61/62/4 25/63/4 23/64/4
f 70/65/2 71/66/2 24/6/2 22/5/2
f 62/67/4 60/61/4 23/64/4 20/68/4
f 75/69/2 70/65/2 22/5/2 21/70/2
f 78/71/1 75/72/1 21/10/1 49/9/1
f 69/73/1 74/74/1 34/75/1 20/76/1
f 51/77/1 58/78/1 31/79/1 4/80/1
f 3/81/3 8/82/3 32/83/3 28/84/3
f 8/82/3 13/85/3 33/86/3 32/83/3
f 84/87/5 85/88/5 30/35/5 29/26/5
f 79/89/5 84/87/5 29/26/5 31/25/5
f 3/90/1 28/91/1 42/92/1 38/93/1
f 46/94/1 1/95/1 35/96/1 50/97/1
f 1/98/2 6/99/2 39/100/2 35/101/2
f 6/99/2 11/102/2 40/103/2 39/100/2
f 83/104/1 14/105/1 41/106/1 87/107/1
f 76/108/4 77/109/4 37/33/4 36/22/4
f 69/110/4 76/108/4 36/22/4 38/21/4
f 93/111/1 46/94/1 50/97/1 97/112/1
f 105/113/1 78/71/1 49/9/1 96/114/1
f 21/70/2 22/5/2 63/8/2 5/115/2
f 2/116/5 7/117/5 47/118/5 43/119/5
f 7/117/5 12/120/5 48/121/5 47/118/5
f 99/122/3 100/123/3 45/29/3 44/14/3
f 93/124/3 99/122/3 44/14/3 46/13/3
f 102/125/1 59/1/1 43/4/1 98/126/1
f 104/127/1 68/12/1 59/1/1 102/125/1
f 62/128/1 67/129/1 58/78/1 51/77/1
f 4/16/4 9/15/4 56/130/4 51/131/4
f 9/15/4 10/30/4 57/132/4 56/130/4
f 89/133/1 65/134/1 54/50/1 88/49/1
f 63/8/2 64/7/2 53/31/2 52/18/2
f 5/115/2 63/8/2 52/18/2 55/17/2
f 68/12/1 5/11/1 55/2/1 59/1/1
f 86/60/1 26/59/1 65/134/1 89/133/1
f 146/135/6 125/136/6 66/137/6 143/138/6
f 20/76/1 34/75/1 67/129/1 62/128/1
f 96/114/1 49/9/1 68/12/1 104/127/1
f 51/131/4 56/130/4 60/61/4 62/67/4
f 56/130/4 57/132/4 61/62/4 60/61/4
f 97/112/1 50/97/1 78/71/1 105/113/1
f 20/68/4 23/64/4 76/108/4 69/110/4
f 23/64/4 25/63/4 77/109/4 76/108/4
f 38/93/1 42/92/1 74/74/1 69/73/1
f 50/97/1 35/96/1 75/72/1 78/71/1
f 35/101/2 39/100/2 70/65/2 75/69/2
f 39/100/2 40/103/2 71/66/2 70/65/2
f 87/107/1 41/106/1 72/58/1 92/57/1
f 42/92/1 87/107/1 92/57/1 74/74/1
f 128/139/6 126/140/6 90/141/6 114/142/6
f 34/75/1 86/60/1 89/133/1 67/129/1
f 67/129/1 89/133/1 88/49/1 58/78/1
f 28/91/1 83/104/1 87/107/1 42/92/1
f 15/46/5 17/40/5 84/87/5 79/89/5
f 17/40/5 19/39/5 85/88/5 84/87/5
f 139/143/6 137/144/6 82/145/6 113/146/6
f 74/74/1 92/57/1 86/60/1 34/75/1
f 58/78/1 88/49/1 79/52/1 31/79/1
f 28/84/3 32/83/3 80/41/3 83/47/3
f 32/83/3 33/86/3 81/42/3 80/41/3
f 41/106/1 97/112/1 105/113/1 72/58/1
f 26/59/1 96/114/1 104/127/1 65/134/1
f 65/134/1 104/127/1 102/125/1 54/50/1
f 54/50/1 102/125/1 98/126/1 15/51/1
f 14/48/3 16/44/3 99/122/3 93/124/3
f 16/44/3 18/43/3 100/123/3 99/122/3
f 72/58/1 105/113/1 96/114/1 26/59/1
f 14/105/1 93/111/1 97/112/1 41/106/1
f 43/119/5 47/118/5 94/37/5 98/45/5
f 47/118/5 48/121/5 95/38/5 94/37/5
f 33/147/6 13/147/6 107/147/6 109/147/6
f 132/147/6 73/147/6 110/147/6 133/147/6
f 81/147/6 33/147/6 109/147/6 111/147/6
f 13/147/6 91/147/6 112/147/6 107/147/6
f 18/147/6 81/147/6 111/147/6 108/147/6
f 18/147/6 73/147/6 110/147/6 108/147/6
f 108/43/7 111/42/7 109/86/7 107/85/7 112/45/7 116/148/7 133/149/7 110/46/7
f 45/29/7 100/123/7 108/43/7 110/46/7 106/89/7 11/30/7
f 12/32/8 53/31/8 64/7/8 24/6/8 101/150/8 150/151/8 127/152/8 103/153/8
f 24/6/8 71/66/8 40/103/8 11/102/8 106/154/8 122/155/8 138/156/8 101/150/8
f 19/39/9 95/38/9 48/121/9 12/120/9 103/157/9 118/158/9 143/159/9 66/160/9
f 10/36/9 30/35/9 85/88/9 19/39/9 66/160/9 131/161/9 114/162/9 90/163/9
f 57/132/10 10/30/10 90/164/10 126/165/10 149/166/10 82/167/10 25/63/10 61/62/10
f 77/109/10 25/63/10 82/167/10 112/168/10 107/34/10 37/33/10
f 91/147/6 115/147/6 116/147/6 112/147/6
f 141/169/11 139/143/11 113/146/11 130/170/11
f 135/171/6 128/139/6 114/142/6 131/172/6
f 127/173/6 129/174/6 118/175/6 103/176/6
f 138/177/6 140/178/6 117/179/6 101/180/6
f 106/181/6 119/182/6 124/183/6 122/184/6
f 132/185/6 115/186/6 123/187/6 134/188/6
f 115/186/6 91/189/6 121/190/6 123/187/6
f 144/191/6 73/192/6 120/193/6 145/194/6
f 150/195/6 152/196/6 129/174/6 127/173/6
f 153/197/12 151/198/12 128/139/12 135/171/12
f 151/198/6 149/199/6 126/140/6 128/139/6
f 154/200/13 148/201/13 125/202/13 146/203/13
f 148/201/13 153/204/13 135/205/13 125/202/13
f 73/192/6 132/185/6 134/188/6 120/193/6
f 125/136/6 135/171/6 131/172/6 66/137/6
f 136/54/6 141/169/6 130/170/6 27/55/6
f 115/147/6 132/147/6 133/147/6 116/147/6
f 120/193/14 134/188/14 141/169/14 136/54/14
f 122/184/6 124/183/6 140/178/6 138/177/6
f 134/188/15 123/187/15 139/143/15 141/169/15
f 123/187/6 121/190/6 137/144/6 139/143/6
f 145/194/14 120/193/14 136/54/14 147/53/14
f 124/183/16 145/194/16 147/53/16 140/178/16
f 152/196/17 154/206/17 146/135/17 129/174/17
f 119/182/6 144/191/6 145/194/6 124/183/6
f 129/174/6 146/135/6 143/138/6 118/175/6
f 140/178/18 147/53/18 142/56/18 117/179/18
f 117/179/18 142/56/18 154/206/18 152/196/18
f 27/55/6 130/170/6 153/197/6 148/207/6
f 142/56/6 27/55/6 148/207/6 154/206/6
f 113/146/6 82/145/6 149/199/6 151/198/6
f 130/170/11 113/146/11 151/198/11 153/197/11
f 101/180/6 117/179/6 152/196/6 150/195/6
