# Blender 5.1.2
# www.blender.org
mtllib level1.mtl
o Cube
v 13.000000 1.000000 -13.000000
v 13.000000 1.000000 13.000000
v -13.000000 1.000000 -13.000000
v -13.000000 1.000000 13.000000
v -18.378433 -1.163446 -13.000000
v -18.378433 -1.163446 13.000000
v -27.982967 -8.286813 17.471939
v 13.000000 -1.163446 -18.911047
v -13.000000 -1.163446 -18.911047
v -18.378433 -1.163446 -18.911047
v -18.378433 -3.163446 -18.911047
v 19.016939 -1.163446 -13.000000
v 19.016939 -1.163446 13.000000
v 19.016939 -1.163446 -18.911047
v 13.000000 -1.163446 18.058371
v -13.000000 -1.163446 18.058371
v -18.109741 -1.448852 17.284693
v 19.016939 -1.163446 18.058371
v -26.244205 -5.911099 -17.071171
v -23.237759 -6.488073 14.337843
v -24.487036 -8.077259 -21.392696
v 32.859604 1.950940 -13.000000
v 30.749754 -3.437982 10.882150
v 32.859604 1.950940 -27.432270
v 28.750233 1.278703 18.058371
v -25.873400 2.308161 25.467417
v 13.006449 -0.155318 26.053850
v -12.993551 6.296271 26.053850
v -18.103292 2.258742 25.280170
v 19.023388 1.704978 26.053850
v 25.413563 2.475565 26.053850
v -26.253733 7.152725 33.730843
v 15.968937 6.116579 43.210461
v -10.031064 9.079319 36.512939
v -15.140804 8.380677 35.739258
v 21.985876 12.733326 36.512939
v 39.261223 14.157750 43.644741
v 45.964424 5.636178 -10.469087
v 43.854576 6.759612 13.413064
v 45.964424 7.089202 -28.976070
v 41.855053 4.963941 20.589285
v 38.518383 10.938156 28.584764
v 60.452667 17.842989 46.175655
v -36.259342 9.149935 48.947350
v 25.488459 14.817025 56.231308
v -0.511542 15.548866 58.508408
v -12.536110 15.323651 63.252987
v 31.505398 16.911713 57.495831
v 48.780743 14.286657 56.665588
v 61.885571 17.971895 59.196499
v -65.498970 30.291378 68.731300
v 25.648876 17.341152 82.857780
v -0.351123 18.072994 90.422287
v -20.773335 17.847778 83.036942
v 38.819366 19.435841 85.988441
v 53.606522 16.810785 97.288132
v 77.286156 20.496023 73.382027
v -141.248291 17.364223 87.787407
v 25.630211 9.609641 108.438881
v -2.857981 10.341483 120.668747
v -44.429813 10.116267 110.173157
v 34.135338 11.704329 115.612854
v 44.257137 9.079274 125.357422
v 100.283249 12.764512 89.321381
v -128.016739 -17.845642 111.647202
v -3.674098 -18.208553 190.824478
v -10.956572 -15.374662 170.144470
v -69.807457 -9.835958 185.595581
v 42.796513 -19.177145 168.322250
v 74.414085 -15.396125 151.643250
v 106.888222 -9.284878 111.084694
v 71.525986 13.069578 -10.839292
v 82.998489 14.193011 13.042859
v 73.468216 20.835634 -52.972965
v 73.905090 20.432594 20.219080
v 70.989189 18.371555 28.214558
v 101.610519 25.023125 34.556870
v 83.060333 25.405294 58.826298
v 181.650528 17.812046 68.618011
v 169.904266 4.537889 84.795586
v -78.220879 24.922392 83.149689
v 167.380432 7.248981 97.833260
v 105.436813 23.753611 -6.909595
v 122.151398 35.210430 -24.515049
v 105.555000 33.043697 -53.454781
v 128.307861 30.541719 -7.714032
v 139.456711 28.920885 4.735627
v 124.309883 33.528461 34.075058
v 137.301361 29.509798 42.319817
v 193.510925 22.513538 16.363224
v 154.619614 22.705139 -1.209478
v 158.168289 19.705711 22.299635
v 176.117203 -6.436234 -22.871378
v 153.139221 27.500023 -29.365503
v 132.973312 32.992744 -71.718117
v 145.337769 24.065233 -38.885574
v 148.490387 31.332405 -75.635696
v -30.335846 -11.964102 14.161691
v -33.512325 1.284319 27.569115
v -35.948967 -0.184977 32.365971
v -27.634209 4.303901 36.750885
v -43.063129 -11.658802 21.879898
v -160.306717 47.612724 56.916615
v -35.886555 -7.077065 20.823309
v -90.547218 23.603081 66.493622
v -148.230469 35.853138 72.352013
v -36.141514 -24.175121 -17.822842
v -36.104156 4.482479 40.656662
v -54.281052 6.539954 45.132698
v -98.570854 26.258831 47.601173
v -71.457947 11.396000 94.201790
v -92.078354 -15.158675 136.454285
v 12.625202 -7.138063 -21.156031
v -13.374799 -7.138063 -21.156031
v 13.000000 -1.163446 -18.911047
v 19.016939 -1.163446 -18.911047
v 12.625202 -7.138063 -21.156031
v 13.000000 -1.163446 -18.911047
v 19.016939 -1.163446 -18.911047
v -24.487036 -8.077259 -21.392696
v -41.742367 -20.851215 -28.833658
v -13.374799 -7.138063 -31.103600
v 12.625202 -7.138063 -31.103600
v -27.738951 -22.257147 -24.970465
v -74.345215 -17.577915 -37.827972
v -16.626713 -13.867918 -34.681370
v 9.373287 -13.867918 -34.681370
v -20.614981 -12.524710 -48.248123
v -32.269459 -15.295511 -49.217514
v -9.502743 -11.585514 -57.959030
v 16.497257 -11.585514 -57.959030
v -31.455132 -15.201595 -60.092884
v -43.109612 -17.972397 -56.523026
v -20.342894 -14.262400 -69.803787
v 5.657108 -14.262400 -69.803787
v -29.211493 -5.735893 -82.843674
v -40.865971 17.726543 -102.589554
v -18.099255 -4.796698 -85.651924
v 7.900748 -4.796698 -85.651924
v -25.251268 14.153826 -90.624084
v -36.905746 11.383024 -103.315964
v -14.139030 15.093021 -100.334984
v 11.860972 15.093021 -100.334984
v -23.564627 19.186205 -111.239876
v -35.219105 16.415403 -107.670013
v -12.452387 20.125401 -120.950775
v 13.547614 20.125401 -120.950775
v -21.874346 21.822325 -130.203415
v -33.528824 19.051523 -126.633545
v -10.762106 22.761520 -138.276596
v 15.237894 22.761520 -150.027466
v 41.733227 -8.716070 -47.391335
v 31.448879 -19.950182 -42.658607
v 53.329548 -26.680037 -58.474766
v 31.264301 -24.397633 -51.173233
v 20.424150 -27.074518 -63.017994
v 22.667789 -17.608816 -78.866135
v 26.628016 2.280903 -93.549194
v 28.314657 3.050739 -114.164978
v 30.004936 5.686859 -144.879379
v 74.045372 -17.505383 -88.277954
v 95.385567 30.433022 -72.717598
v 37.733471 -39.911072 -61.202656
v 39.977112 -30.445368 -77.050797
v 43.937336 -10.555649 -91.733856
v 45.623978 -9.785812 -112.349632
v 47.314259 25.240898 -143.064041
v 122.376640 23.153530 -96.993896
v 144.857666 26.105114 -100.911484
v 91.752838 18.387287 -97.993378
v 84.963531 3.459549 -97.693481
v 45.623978 -9.785812 -112.349632
v -161.015076 60.109081 -3.039226
v 84.963531 3.459549 -97.693481
v 138.691849 27.408443 -127.333549
v 161.172882 7.235392 -131.251129
v 108.068054 30.640343 -128.333038
v 101.278748 23.141027 -128.033127
v -99.279221 15.916248 -12.354666
v -90.819885 11.945240 -48.427727
v -48.920689 1.836533 -67.122780
v -57.340649 23.607378 -103.551575
v -34.299305 -20.300411 -7.673747
v -82.292526 58.879219 -146.604248
v -42.859360 37.568230 -161.402969
v -115.753899 36.434166 -22.954422
v -30.632010 -16.565063 -19.510443
v -25.736929 -13.527387 -22.767834
v -30.632004 -16.565056 -19.510445
v -151.871933 63.693047 -136.635468
v 14.769176 15.951923 -208.975784
v -43.328079 10.478315 -220.351303
v -89.821556 32.957008 -207.354111
v -50.388386 11.646021 -222.152847
v -141.248291 17.364223 87.787407
v -128.016739 -17.845642 111.647202
v 14.769176 15.951923 -208.975784
v -235.269226 16.716276 55.209305
v -207.605423 4.956690 70.644699
v -203.522064 29.212633 -4.746531
v -225.001450 32.796600 -138.342773
v -208.865387 -13.532225 86.080101
v -170.523727 -48.742088 141.594589
vn -0.0000 1.0000 -0.0000
vn -0.6376 0.7505 -0.1739
vn -0.3732 0.9278 -0.0000
vn -0.0000 0.9391 -0.3437
vn -0.2376 0.9379 0.2527
vn -0.1941 0.9650 -0.1766
vn 0.3384 0.9410 -0.0000
vn 0.1741 0.9686 -0.1773
vn -0.5429 0.7979 -0.2621
vn -0.0000 0.9194 0.3932
vn 0.1731 0.9631 0.2060
vn -0.2195 0.9756 -0.0000
vn -0.0238 0.9940 0.1064
vn -0.0433 0.9298 -0.3655
vn -0.6255 0.7792 0.0406
vn 0.1090 0.8784 -0.4653
vn -0.2945 0.7313 -0.6152
vn -0.2518 0.7935 -0.5540
vn -0.1877 0.9419 -0.2785
vn -0.1486 0.9611 -0.2329
vn -0.6546 0.6958 -0.2955
vn 0.2101 0.9148 -0.3450
vn -0.0052 0.8632 -0.5049
vn -0.3701 0.8879 -0.2731
vn 0.1346 0.7291 -0.6710
vn -0.3038 0.9346 -0.1848
vn -0.2872 0.8235 -0.4892
vn -0.4039 0.8679 -0.2892
vn -0.3202 0.9464 0.0417
vn -0.4733 0.8801 0.0368
vn -0.5812 0.8136 0.0173
vn 0.1009 0.8917 -0.4412
vn -0.1027 0.9699 -0.2207
vn -0.2211 0.9717 0.0834
vn -0.1067 0.9660 -0.2356
vn 0.0635 0.9850 -0.1603
vn -0.1992 0.9780 -0.0626
vn 0.0118 0.9962 -0.0860
vn 0.2239 0.9151 -0.3352
vn -0.2046 0.9787 -0.0146
vn -0.0058 0.9952 -0.0981
vn 0.1941 0.9753 -0.1053
vn 0.1238 0.9549 0.2701
vn 0.0321 0.8827 0.4688
vn 0.1319 0.9473 0.2919
vn -0.0729 0.9708 0.2284
vn -0.0126 0.9666 0.2560
vn -0.2910 0.9274 0.2350
vn 0.0954 0.9076 0.4089
vn 0.0033 0.9262 0.3770
vn -0.3612 0.9068 0.2172
vn 0.3467 0.7924 0.5020
vn 0.0670 0.9312 0.3584
vn 0.0683 0.8325 0.5498
vn -0.2496 0.9599 -0.1277
vn -0.3180 0.8847 -0.3408
vn -0.3142 0.9400 0.1328
vn 0.0812 0.8469 0.5255
vn -0.2085 0.9735 -0.0936
vn 0.0104 0.8746 0.4848
vn -0.2239 0.9746 -0.0019
vn -0.2745 0.8380 -0.4716
vn -0.0232 0.9501 0.3112
vn 0.1155 0.9652 0.2346
vn -0.2488 0.9494 -0.1917
vn -0.3804 0.9186 -0.1068
vn -0.3308 0.9281 0.1708
vn -0.1426 0.9860 0.0859
vn -0.0774 0.9753 0.2068
vn -0.4044 0.9144 -0.0166
vn 0.3995 0.9146 0.0626
vn 0.0422 0.9140 -0.4036
vn 0.6160 0.7877 0.0075
vn 0.2693 0.9607 0.0680
vn -0.2125 0.9759 0.0488
vn 0.2295 0.9703 -0.0762
vn 0.3609 0.9254 0.1157
vn -0.6110 0.7913 0.0237
vn -0.2484 0.8306 -0.4984
vn -0.5054 0.7478 -0.4305
vn -0.8805 -0.0703 -0.4688
vn -0.1430 0.7761 -0.6142
vn 0.3747 0.8787 -0.2957
vn -0.2502 0.6305 -0.7347
vn -0.6491 0.6516 -0.3926
vn 0.2901 0.9311 0.2211
vn -0.8822 0.4613 -0.0947
vn -0.1775 0.8375 -0.5167
vn 0.0306 0.7516 -0.6589
vn 0.0728 0.8970 0.4361
vn -0.1729 0.7293 0.6620
vn -0.0179 0.6272 0.7786
vn -0.3452 0.5961 -0.7249
vn -0.1739 0.9301 -0.3235
vn -0.0000 0.3517 -0.9361
vn -0.0063 0.3471 -0.9378
vn -0.4790 0.7076 -0.5195
vn -0.0842 0.9964 -0.0000
vn 0.6710 0.3436 0.6571
vn -0.0000 0.4694 -0.8830
vn -0.6910 0.4170 -0.5904
vn 0.4764 0.8197 0.3180
vn -0.0000 0.9952 0.0976
vn -0.2526 0.9528 0.1686
vn -0.0355 0.9588 0.2819
vn -0.0000 0.9754 -0.2204
vn -0.1543 0.9847 -0.0813
vn -0.2322 0.9726 -0.0090
vn -0.0000 0.8585 0.5128
vn 0.1795 0.8748 0.4499
vn 0.3231 0.7814 0.5339
vn -0.0000 0.5939 0.8045
vn 0.4301 0.3775 0.8201
vn -0.3700 0.6395 0.6738
vn -0.0000 0.9715 0.2371
vn 0.1332 0.9603 0.2453
vn -0.3339 0.8890 0.3132
vn 0.0259 0.9931 0.1147
vn 0.0339 0.9886 0.1468
vn -0.1954 0.9736 0.1179
vn 0.0316 0.8351 -0.5492
vn 0.7348 0.6707 0.1007
vn 0.3766 0.9221 -0.0888
vn -0.3493 0.6382 -0.6861
vn 0.6378 0.3804 -0.6697
vn 0.4189 0.7522 0.5086
vn 0.1250 0.5730 0.8099
vn 0.6659 0.7293 0.1571
vn -0.4772 0.6690 -0.5697
vn -0.5917 0.6739 -0.4425
vn -0.4469 0.2427 -0.8610
vn -0.2152 0.8378 0.5018
vn 0.3062 0.5252 0.7940
vn -0.3077 0.7680 -0.5616
vn 0.5885 0.8047 0.0782
vn 0.4820 0.7205 0.4986
vn -0.1645 0.8569 0.4885
vn 0.0430 0.5878 0.8078
vn 0.2187 0.9743 0.0543
vn -0.8073 0.3931 -0.4401
vn -0.6934 0.4824 -0.5352
vn -0.3542 0.9332 0.0605
vn -0.0649 0.9928 -0.1003
vn -0.0881 0.9229 -0.3747
vn -0.0867 0.9611 -0.2621
vn -0.9024 0.4233 -0.0807
vn -0.4478 0.5499 0.7051
vn -0.2186 0.1035 0.9703
vn -0.4168 0.8722 -0.2559
vn -0.0323 0.9687 0.2462
vn 0.3520 0.9353 -0.0360
vn -0.8425 0.5051 -0.1872
vn -0.2791 0.7546 0.5939
vn 0.3955 0.8703 -0.2935
vn -0.1066 0.9742 -0.1987
vn 0.4701 0.8826 0.0103
vn 0.7499 0.6503 -0.1210
vn 0.5707 0.6932 0.4402
vn 0.4475 0.5160 0.7304
vn 0.5553 0.7977 0.2351
vn 0.8037 0.5819 0.1244
vn -0.3507 -0.8257 -0.4419
vn 0.3819 0.8295 0.4075
vn -0.8154 0.5745 -0.0713
vn -0.6549 0.3226 -0.6834
vn 0.0191 0.9598 0.2800
vn 0.5619 0.6882 0.4589
vn -0.4132 -0.8071 -0.4217
vn 0.8083 0.5009 0.3096
vn 0.2729 0.9516 0.1415
vn 0.0643 0.9076 0.4148
vn 0.1633 0.9181 0.3612
vn 0.1303 0.9526 -0.2749
vn 0.3122 0.8592 -0.4053
vn 0.0073 0.9194 -0.3932
vn 0.2490 0.8793 -0.4060
vn -0.0519 0.9921 -0.1142
vn 0.0888 0.9793 -0.1818
vn -0.4661 0.8825 0.0633
vn -0.2768 0.5586 0.7819
vn -0.1914 0.6692 0.7180
vn -0.4719 0.8805 0.0454
vn -0.3037 0.5825 0.7540
vn -0.3023 0.7483 -0.5905
vn 0.8221 0.5668 0.0533
vn 0.6701 0.3261 -0.6668
vn 0.6344 0.7462 0.2020
vn 0.5045 0.8282 -0.2438
vn 0.8360 0.5468 -0.0463
vn 0.0259 -0.0633 -0.9977
vn -0.1139 0.9929 0.0335
vn 0.4062 0.5884 -0.6991
vn -0.1565 0.8266 -0.5406
vn -0.3749 0.9059 0.1970
vt 0.625000 0.500000
vt 0.875000 0.500000
vt 0.875000 0.750000
vt 0.625000 0.750000
vt 0.000000 0.000000
vt 0.250721 0.214904
vt 0.293532 0.251599
vt 0.612096 0.349769
vt 0.413645 0.236369
s 0
usemtl Material
f 1/1/1 3/2/1 4/3/1 2/4/1
f 7/5/2 17/3/2 6/3/2 20/3/2
f 4/3/3 3/2/3 5/2/3 6/3/3
f 3/2/4 1/1/4 8/1/4 9/2/4
f 4/3/5 6/3/5 17/3/5 16/3/5
f 5/2/6 3/2/6 9/2/6 10/2/6
f 1/1/7 2/4/7 13/4/7 12/1/7
f 8/1/8 1/1/8 12/1/8 14/1/8
f 5/2/9 10/2/9 21/2/9 19/2/9
f 2/4/10 4/3/10 16/3/10 15/4/10
f 13/4/11 2/4/11 15/4/11 18/4/11
f 14/1/12 12/1/12 22/1/12 24/1/12
f 12/1/13 13/4/13 23/4/13 22/1/13
f 13/4/14 18/4/14 25/4/14 23/4/14
f 6/3/15 5/2/15 19/2/15 20/3/15
f 15/4/16 16/3/16 28/3/16 27/4/16
f 17/3/17 7/5/17 26/5/17 29/3/17
f 16/3/18 17/3/18 29/3/18 28/3/18
f 25/4/19 18/4/19 30/4/19 31/4/19
f 18/4/20 15/4/20 27/4/20 30/4/20
f 30/4/21 27/4/21 33/4/21 36/4/21
f 27/4/22 28/3/22 34/3/22 33/4/22
f 29/3/23 26/5/23 32/5/23 35/3/23
f 28/3/24 29/3/24 35/3/24 34/3/24
f 31/4/25 30/4/25 36/4/25 37/4/25
f 31/4/26 37/4/26 43/4/26 42/4/26
f 25/4/27 31/4/27 42/4/27 41/4/27
f 23/4/28 25/4/28 41/4/28 39/4/28
f 24/1/29 22/1/29 38/1/29 40/1/29
f 22/1/30 23/4/30 39/4/30 38/1/30
f 36/4/31 33/4/31 45/4/31 48/4/31
f 33/4/32 34/3/32 46/3/32 45/4/32
f 35/3/33 32/5/33 44/5/33 47/3/33
f 43/4/34 37/4/34 49/4/34 50/4/34
f 34/3/35 35/3/35 47/3/35 46/3/35
f 37/4/36 36/4/36 48/4/36 49/4/36
f 48/4/37 45/4/37 52/4/37 55/4/37
f 45/4/38 46/3/38 53/3/38 52/4/38
f 47/3/39 44/5/39 51/5/39 54/3/39
f 50/4/40 49/4/40 56/4/40 57/4/40
f 46/3/41 47/3/41 54/3/41 53/3/41
f 49/4/42 48/4/42 55/4/42 56/4/42
f 52/4/43 53/3/43 60/3/43 59/4/43
f 54/3/44 51/5/44 81/5/44 111/6/44 61/3/44
f 57/4/45 56/4/45 63/4/45 64/4/45
f 53/3/46 54/3/46 61/3/46 60/3/46
f 56/4/47 55/4/47 62/4/47 63/4/47
f 55/4/48 52/4/48 59/4/48 62/4/48
f 62/4/49 59/4/49 66/4/49 69/4/49
f 59/4/50 60/3/50 67/3/50 66/4/50
f 61/3/51 111/6/51 112/7/51 68/3/51
f 64/4/52 63/4/52 70/4/52 71/4/52
f 60/3/53 61/3/53 68/3/53 67/3/53
f 63/4/54 62/4/54 69/4/54 70/4/54
f 43/4/55 50/4/55 78/4/55 77/4/55
f 41/4/56 42/4/56 76/4/56 75/4/56
f 40/1/57 38/1/57 72/1/57 74/1/57
f 57/4/58 64/4/58 80/4/58 79/4/58
f 42/4/59 43/4/59 77/4/59 76/4/59
f 64/4/60 71/4/60 82/4/60 80/4/60
f 38/1/61 39/4/61 73/4/61 72/1/61
f 39/4/62 41/4/62 75/4/62 73/4/62
f 50/4/63 57/4/63 79/4/63 78/4/63
f 78/4/64 79/4/64 90/4/64 89/4/64
f 76/4/65 77/4/65 88/4/65 87/4/65
f 73/4/66 75/4/66 86/4/66 84/4/66
f 74/1/67 72/1/67 83/1/67 85/1/67
f 77/4/68 78/4/68 89/4/68 88/4/68
f 75/4/69 76/4/69 87/4/69 86/4/69
f 72/1/70 73/4/70 84/4/70 83/1/70
f 87/5/71 88/5/71 91/5/71
f 89/5/72 90/5/72 92/5/72 88/5/72
f 88/5/73 92/5/73 93/5/73 91/5/73
f 87/5/74 91/5/74 94/5/74 86/5/74
f 83/5/75 84/5/75 95/5/75 85/5/75
f 86/5/76 94/5/76 96/5/76 84/5/76
f 84/5/77 96/5/77 97/5/77 95/5/77
f 20/5/78 19/5/78 98/5/78 7/5/78
f 32/5/79 26/5/79 99/5/79
f 44/5/80 32/5/80 100/5/80 108/5/80
f 32/5/81 99/5/81 101/5/81 100/5/81
f 108/5/82 100/5/82 102/5/82 109/5/82
f 109/5/83 102/5/83 110/5/83 105/5/83
f 26/5/84 7/5/84 104/5/84 99/5/84
f 100/5/85 99/5/85 104/5/85 102/5/85
f 105/5/86 110/5/86 103/5/86 106/5/86
f 19/5/87 21/5/87 187/5/87 183/5/87 98/5/87
f 51/5/88 109/5/88 105/5/88 81/5/88
f 44/5/89 108/5/89 109/5/89 51/5/89
f 81/5/90 105/5/90 106/5/90 58/5/90
f 112/7/91 111/6/91 58/5/91 65/5/91
f 111/6/92 81/5/92 58/5/92
f 7/5/93 98/5/93 102/5/93 104/5/93
f 98/5/94 183/5/94 107/5/94 102/5/94
f 9/2/95 8/1/95 113/1/95 114/2/95
f 9/2/96 114/2/96 21/2/96 10/2/96
f 8/1/1 14/1/1 116/1/1 115/1/1
f 115/1/1 116/1/1 119/1/1 118/1/1
f 119/1/95 117/5/95 118/1/95
f 117/5/97 119/1/97 24/5/97
f 21/2/98 114/2/98 122/2/98 120/2/98
f 137/5/99 141/5/99 145/5/99
f 122/2/1 114/2/1 117/5/1 123/5/1
f 122/2/100 123/5/100 127/5/100 126/2/100
f 120/2/101 122/2/101 126/2/101 124/2/101 188/2/101
f 184/5/102 137/5/102 145/5/102
f 126/2/103 127/5/103 131/5/103 130/2/103
f 124/2/104 126/2/104 130/2/104 128/2/104
f 125/5/105 121/5/105 124/5/105 128/5/105 129/5/105
f 130/2/106 131/5/106 135/5/106 134/2/106
f 128/2/107 130/2/107 134/2/107 132/2/107
f 129/5/108 128/5/108 132/5/108 133/5/108
f 134/2/109 135/5/109 139/5/109 138/2/109
f 132/2/110 134/2/110 138/2/110 136/2/110
f 133/5/111 132/5/111 136/5/111 137/5/111
f 138/2/112 139/5/112 143/5/112 142/2/112
f 136/2/113 138/2/113 142/2/113 140/2/113
f 137/5/114 136/5/114 140/5/114 141/5/114
f 142/2/115 143/5/115 147/5/115 146/2/115
f 140/2/116 142/2/116 146/2/116 144/2/116
f 141/5/117 140/5/117 144/5/117 145/5/117
f 146/2/118 147/5/118 151/5/118 150/2/118
f 144/2/119 146/2/119 150/2/119 148/2/119
f 145/5/120 144/5/120 148/5/120 149/5/120
f 127/5/121 123/5/121 153/5/121 154/5/121
f 151/5/122 147/5/122 159/5/122 160/5/122
f 131/5/123 127/5/123 154/5/123 155/5/123
f 123/5/124 117/5/124 152/5/124 153/5/124
f 135/5/125 131/5/125 155/5/125 156/5/125
f 139/5/126 135/5/126 156/5/126 157/5/126
f 143/5/127 139/5/127 157/5/127 158/5/127
f 147/5/128 143/5/128 158/5/128 159/5/128
f 24/5/129 152/5/129 117/5/129
f 24/5/130 40/1/130 74/1/130 152/5/130
f 152/5/131 74/1/131 154/5/131 153/5/131
f 160/5/132 159/5/132 166/5/132 167/5/132
f 158/5/133 157/5/133 164/5/133 165/5/133
f 155/5/134 154/5/134 161/5/134 163/5/134 156/5/134
f 159/5/135 158/5/135 165/5/135 166/5/135
f 157/5/136 156/5/136 163/5/136 164/5/136
f 164/5/137 163/5/137 161/5/137
f 161/5/138 165/5/138 164/5/138
f 165/5/139 161/5/139 166/5/139
f 74/1/140 161/5/140 154/5/140
f 161/5/141 74/1/141 162/5/141
f 74/1/142 85/1/142 162/5/142
f 85/1/143 95/5/143 162/5/143
f 162/5/144 95/5/144 168/5/144 170/5/144
f 95/5/145 97/5/145 169/5/145 168/5/145
f 171/5/146 161/5/146 162/5/146 170/5/146
f 166/5/147 161/5/147 171/5/147
f 166/5/1 171/5/1 174/5/1 172/5/1
f 160/5/148 167/5/148 151/5/148
f 124/2/149 121/8/149 107/5/149 189/9/149 188/2/149
f 170/5/150 168/5/150 175/5/150 177/5/150
f 168/5/151 169/5/151 176/5/151 175/5/151
f 178/5/152 174/5/152 170/5/152 177/5/152
f 174/5/153 178/5/153 167/5/153 172/5/153
f 110/5/154 102/5/154 107/5/154 125/5/154
f 129/5/155 133/5/155 125/5/155
f 103/5/156 110/5/156 179/5/156 173/5/156
f 110/5/157 125/5/157 179/5/157
f 133/5/158 137/5/158 182/5/158 181/5/158
f 125/5/159 133/5/159 181/5/159 180/5/159
f 145/5/160 149/5/160 185/5/160 184/5/160
f 179/5/161 125/5/161 180/5/161 186/5/161
f 182/5/162 184/5/162 145/5/162 137/5/162
f 181/5/163 182/5/163 180/5/163
f 183/5/164 187/5/164 107/5/164
f 188/2/165 189/9/165 120/2/165
f 107/5/166 121/8/166 125/5/166
f 179/5/167 186/5/167 173/5/167
f 182/5/168 180/5/168 184/5/168
f 180/5/169 184/5/169 186/5/169
f 190/5/170 173/5/170 186/5/170 184/5/170
f 149/5/171 148/2/171 150/2/171 185/5/171
f 151/5/172 185/5/172 150/2/172
f 185/5/173 151/5/173 191/5/173 192/5/173
f 184/5/174 185/5/174 194/5/174 193/5/174
f 184/5/175 193/5/175 190/5/175
f 185/5/176 192/5/176 194/5/176
f 167/5/177 191/5/177 151/5/177
f 178/5/178 191/5/178 167/5/178
f 65/5/1 58/5/1 195/5/1 196/5/1
f 103/5/179 173/5/179 200/5/179 198/5/179
f 106/5/180 103/5/180 198/5/180 199/5/180
f 196/5/181 195/5/181 202/5/181 203/5/181
f 173/5/182 190/5/182 201/5/182 200/5/182
f 199/5/183 202/5/183 195/5/183 106/5/183
f 193/5/184 201/5/184 190/5/184
f 91/5/185 93/5/185 94/5/185
f 94/5/186 93/5/186 96/5/186
f 97/5/187 96/5/187 93/5/187
f 169/5/188 97/5/188 176/5/188
f 93/5/189 176/5/189 97/5/189
f 177/5/190 175/5/190 178/5/190
f 197/5/191 178/5/191 175/5/191
f 175/5/192 176/5/192 197/5/192
f 92/5/193 90/5/193 93/5/193
f 112/7/194 196/5/194 203/5/194 68/3/194
l 113 117
l 191 197
